<?xml version="1.0" encoding="utf-8"?>
<!-- Generator: Adobe Illustrator 26.0.0, SVG Export Plug-In . SVG Version: 6.00 Build 0)  -->
<svg version="1.1" id="Front_Passenger_Corner" xmlns="http://www.w3.org/2000/svg" xmlns:xlink="http://www.w3.org/1999/xlink"
	 x="0px" y="0px" viewBox="0 0 914.14 558" style="enable-background:new 0 0 914.14 558;" xml:space="preserve">
<style type="text/css">
	.st0{fill:none;stroke:#000000;stroke-width:2;stroke-miterlimit:10;}
	.st1{fill:none;stroke:#000000;stroke-miterlimit:10;}
	.st2{fill:none;stroke:#000000;stroke-width:0.5;stroke-miterlimit:10;}
</style>
<path class="st0" d="M48.64,338.36c-1.88,3.05-5.81,4.19-8.98,2.52c-7.18-3.79-11.61-8.45-14.34-12.57
	c-4.18-6.32-5.34-14.2-3.31-21.51c5.73-20.6,32.21-29.56,41.58-32.13c1.05-0.29,1.86,0.91,1.21,1.78
	c-4.79,6.37-15.77,23.73-10.95,43.68c0.25,1.04,0.44,2.09,0.51,3.15l0,0c0.21,3.42-0.64,6.82-2.43,9.74L48.64,338.36z"/>
<path class="st0" d="M63.91,275.79c17.42-12.01,36.29-22.13,55.31-31.35c9.88-4.79,19.38-9.39,29.86-12.63
	c11.08-3.42,21.95-7.64,30.96-15.08c4.85-4.01,9.77-7.96,14.71-11.87c18.5-14.62,37.48-28.65,56.94-41.97
	c24.02-16.43,48.97-32,75.13-44.83c0.13-0.06-0.13,0.06,0,0c34.2-17.26,70.88-22.98,108.51-26.55c38.76-3.67,77.65-6.08,116.58-6.9
	c40.84-0.86,82.19,0.1,122.89,3.79c31.4,2.85,62.84,8.97,92.46,19.9c9.23,3.4,18.34,7.32,27.12,11.85
	c13.31,6.88,25.31,16.19,35.35,27.3c10.75,11.9,16.99,25.83,25.69,39.05c4.24,6.44,9.21,9.83,15.85,13.35
	c2.69,1.43,5.12,3.25,7.16,5.52c7.97,8.83,10.1,22.2,11.33,33.55c0,0,6,49.39,7.29,59.36c1.29,9.96,4.5,30.64,0,79.5l-5.36,6"/>
<path class="st0" d="M600.26,452.75"/>
<path class="st0" d="M895.03,380.04c1.24-18.15,2.03-36.62,0.05-54.75c-1.17-10.7-3.76-23.44-12.09-31.04
	c-5.8-5.3-14.62-5.36-20.66-0.34c-9.83,8.16-25.3,29.48-37.23,85.09c-1.09,5.07-1.83,10.21-2.23,15.39
	c-0.47,6.13-1.12,14.84-1.48,21.02c-0.05,0.95-0.71,1.75-1.64,1.99l-227.09,59.84c-0.96,0.25-1.71-0.8-1.17-1.63
	c2.02-3.05,3.88-7.41,5.44-11.77c3.46-9.66,5.5-19.77,6.29-29.99c1.86-24.04-0.4-46.69-1.88-57.89c-0.93-7.08-2.81-14.02-5.83-20.49
	c-6.15-13.16-17.96-28.26-34-27.33c-12.47,0.73-23.84,7.49-32.63,16.01c-24.57,23.78-35.84,63.18-39.38,96.34
	c-1.95,18.21-1.32,36.71,2.28,54.68c0.29,1.43-0.74,2.78-2.19,2.88c-22.53,1.42-45.1,2.36-67.66,3.06
	c-26.28,0.81-52.59,0.85-78.87,0.08c-13.27-0.39-26.54-0.98-39.79-1.77c-12.7-0.76-25.29-0.56-37.99-0.93
	c-2.08-0.06-4.17-0.16-6.25-0.32c-19.59-1.51-38.37-6.86-57.93-8.17c-6.13-0.41-12.25-0.82-18.38-1.22
	c-12.25-0.81-24.5-1.62-36.75-2.43c-23.86-1.57-47.71-3.23-71.57-4.86c-14.13-0.96-42.81,1.68-50.74-14.24
	c-2.49-2.71-3.71-6.39-4.03-10.05c-0.32-3.66,0.18-7.34,0.77-10.97c0.97-6.03,2.17-12.07,2.27-18.18
	c0.17-10.56-3.94-19.6-5.71-29.74c-1.16-6.67-1.34-13.51-1.28-20.27c0.13-14.48,1.47-29.03,3.56-43.39
	c0.58-3.95,1.75-7.79,3.5-11.38"/>
<path class="st0" d="M308.96,351.22c4.04,2.72,8.89,3.96,13.74,3.57c26.56-2.17,53.02-5.58,79.22-10.44
	c15.38-2.85,32-4.75,45.8-12.63c5.78-3.3,11.02-7.49,15.67-12.24c9.52-9.73,17.31-22.14,21.79-35.11c0.32-0.93-0.42-1.89-1.41-1.82
	c-10.63,0.69-61.58,4.95-130.58,26.24c0,0-36.57,10.43-60.9,22.35c-1.68,0.82-2.74,2.53-2.74,4.4v0c0,1.63,0.81,3.15,2.16,4.06
	L308.96,351.22z"/>
<path class="st0" d="M463.39,319.48c9.78,5.93,19.58,11.87,28.89,18.52c8.51,6.08,18.61,12.88,22.99,22.77"/>
<path class="st0" d="M562.27,259.69c-0.53,1.15,0.51,2.39,1.73,2.09l0.24-0.06c6.88-1.71,13.76-3.43,20.65-5.14
	c11.45-2.85,22.9-5.7,34.35-8.55c13.96-3.48,27.92-6.95,41.88-10.43c14.42-3.59,28.83-7.18,43.25-10.77
	c12.82-3.19,25.64-6.39,38.46-9.58c9.17-2.28,18.33-4.57,27.5-6.85c11.94-2.97,24.23-5.96,36.11-9.65
	c6.04-1.87,11.98-3.99,17.87-6.29c4.24-1.66,9.68-3.21,12.18-7.36c1.73-2.88,1.81-6.46,1.41-9.8c-0.15-1.22-0.26-2.48-0.38-3.77
	c-0.91-10.32-6.05-19.84-14.26-26.16c-14.38-11.07-45.87-30.79-97.2-40.64c0,0-70.07-13.18-101.89,37.29
	C624.16,144,586.27,208.01,562.27,259.69z"/>
<path class="st0" d="M688.36,219.08c0.15,5.38-2.97,8.96-7.75,11.23c-6.23,2.95-13.29,3.5-20.16,4.01c-13.65,1-27.3,1.99-40.95,2.99
	c-0.76,0.06-1.6,0.15-2.09,0.73c-0.67,0.79-0.33,1.99-0.62,2.98c-0.48,1.63-2.44,2.21-4.1,2.54c-2.46,0.49-4.93,0.98-7.39,1.46
	c-0.99,0.2-2.09,0.38-2.97-0.12c-1.3-0.74-1.47-2.51-1.48-4.01c-0.02-3.12-0.04-6.24-0.07-9.36c-0.02-2.17,0-4.47,1.13-6.32
	c1.63-2.68,5.02-3.59,8.04-4.45c1.72-0.49,3.63-1.21,4.3-2.87c0.28-0.7,0.29-1.47,0.29-2.21c0.01-4.83-0.13-10.02,2.58-14.01
	c1.74-2.56,4.47-4.28,7.28-5.6c6.89-3.25,14.58-4.47,22.2-4.78c9.21-0.38,18.69,0.58,27.26,4.14c4.08,1.69,7.2,3.67,9.56,7.49
	c2.91,4.72,4.71,10.47,4.93,16.02C688.36,218.98,688.36,219.03,688.36,219.08z"/>
<path class="st0" d="M601.7,244.36l-27.53,8.1c-0.51,0.15-0.96-0.38-0.72-0.86c4.58-9.27,9.31-18.46,14.09-27.63
	c9.78-18.76,19.83-37.41,30.72-55.55c7.63-12.71,15.17-26.34,26.88-35.82c11.06-8.95,24.34-14.67,38.24-17.46
	c14.85-2.98,30.22-2.78,45.17-0.68c2.76,0.39,5.52,0.83,8.27,1.31c17.38,3.04,34.37,8.24,50.51,15.35c0,0,17.41,7.7,34.36,19.32
	c8.65,5.92,13.52,16.19,11.97,26.56c-0.53,3.52-1.77,6.7-4.36,8.97c-2.73,2.39-6.18,3.76-9.57,5.02
	c-31.3,11.62-64.53,17.53-96.96,25c-11.75,2.71-23.5,5.41-35.25,8.12"/>
<path class="st0" d="M616.12,223.23"/>
<path class="st0" d="M609.46,183.49c0,0-6.26,26.49-8.17,43.1"/>
<path class="st0" d="M602.3,224.65c0,0,10.44-1.42,25.47-1.42s50.39-2.73,60.59-5.02"/>
<path class="st0" d="M648.42,222.41l3.5,5.37c0.67,1.03,1.82,1.64,3.05,1.61c6.38-0.14,26.33-0.75,31.19-3.18"/>
<path class="st0" d="M614.55,215.67"/>
<path class="st0" d="M790.74,132.73c0,0,23.65,35.63,32.35,56.96"/>
<path class="st0" d="M769.22,124.09c0,0,17.25,22.64,25.29,39.52s11.37,32.16,11.37,32.16"/>
<path class="st0" d="M708.05,112.91c0,0,25.76,49.08,34.52,98.69"/>
<path class="st0" d="M699.05,112.91c0,0,22.69,46.94,35.24,100.51"/>
<path class="st0" d="M689.36,114.13c0,0,23.06,54.54,33.41,101.88"/>
<path class="st0" d="M852.98,182.7c4.59,9.09,1.77,20.33,7.27,29.04c2.23,3.53,5.75,6.19,9.7,7.56c2.5,0.86,5.16,1.24,7.57,2.31
	c3.98,1.77,6.94,5.33,8.84,9.25c1.91,3.91,2.87,8.21,3.82,12.46"/>
<path class="st0" d="M822.64,242.51c1.62,3.57,3.8,5.76,5.71,5.37c1.99-0.41,3.16-3.51,3.17-7.68"/>
<path class="st0" d="M820.35,233.56c-0.47-5.27,0.72-9.46,3.06-9.94c2.27-0.46,4.91,2.71,6.55,7.49"/>
<path class="st0" d="M831.92,230.61l-13.83,3.53c-2.47,0.63-3.96,3.13-3.34,5.6l0,0c0.62,2.5,3.17,4,5.66,3.35l13.75-3.59
	c2.43-0.62,3.92-3.08,3.33-5.52v0C836.89,231.51,834.39,230,831.92,230.61z"/>
<path class="st0" d="M722.78,268.32c2.14,4.55,5.34,7.34,8.07,6.64c2.64-0.67,4.08-4.46,3.87-9.27"/>
<path class="st0" d="M720.44,259.09c-0.28-4.94,1.17-8.85,3.86-9.55c2.64-0.68,5.73,1.93,7.87,6.24"/>
<path class="st0" d="M735.92,254.72l-18.55,5.24c-2.27,0.64-3.71,2.88-3.35,5.21v0c0.41,2.66,2.99,4.43,5.62,3.85l18.83-4.14
	c2.79-0.61,4.57-3.35,4-6.15l0,0C741.86,255.73,738.85,253.89,735.92,254.72z"/>
<path class="st0" d="M738.91,218.21c9.79,12.21,14.68,27.67,15.93,43.08c1.99,24.56,2.12,49.37,0.59,73.97
	c-0.36,5.78-0.84,11.56-1.46,17.32c-2.18,20.24-6.11,39.76-4.61,60.07"/>
<path class="st0" d="M603.92,251.83c5.91,13.35,8.97,28.21,11.18,42.55c4.26,27.7,4.85,55.8,5.06,83.78
	c0.19,24.46,0.75,49.23-2.33,73.55"/>
<path class="st0" d="M823.58,387.68c0,0-155.39,52.68-224.56,69.7"/>
<path class="st0" d="M326.81,118.06c14.67-2.78,29.55-4.6,44.39-6.21c38.41-4.17,77.09-5.93,115.72-5.6
	c22.04,0.19,44.06,1.3,66.06,2.52c17.47,0.97,34.96,1.63,52.37,3.45c5.29,0.55,10.77,0.97,15.99,2c1.39,0.28,2.84,1.08,3.18,2.46
	c0.18,0.72,0.02,1.49-0.3,2.16c-0.88,1.85-2.38,3.64-3.53,5.36c-1.3,1.96-2.6,3.92-3.91,5.88c-2.71,4.08-5.42,8.17-8.13,12.25
	c-1,1.5-1.99,3-2.99,4.5c-9.97,15.01-19.94,30.03-29.91,45.04c-4.73,7.13-9.1,14.77-15.2,20.84c-5.73,5.71-12.63,10.29-20.15,13.26
	c-15.09,5.97-31.84,4.14-47.65,3.75c-17.81-0.44-35.59-1.34-53.38-2.23c-13.7-0.68-27.4-1.35-41.1-1.79
	c-14.18-0.46-28.36-0.89-42.54-1.42c-40.6-1.54-81.26-1.48-121.87-0.81c-18.92,0.31-37.84,0.72-56.75,1.44
	c-1.26,0.05-2.11-1.27-1.54-2.4l1.88-3.77"/>
<path class="st0" d="M699.05,91.29c0,0-62.25-2.1-80.63,22.41"/>
<path class="st0" d="M680,88.91c0,0-46.74-2.13-71.81,23.59"/>
<line class="st0" x1="484.91" y1="283.03" x2="563.07" y2="261.32"/>
<path class="st0" d="M531.45,228.62c4.39,1.62,9.01,4.32,10.25,9.09c2.42,9.36-0.52,19.46,2.3,28.93"/>
<path class="st0" d="M305.22,325.36c0,0-21.46-14.7-136.53-19.68c0,0-103.1-3.78-115.67,9.84"/>
<ellipse class="st0" cx="158.73" cy="316.61" rx="15.91" ry="5.46"/>
<path class="st0" d="M488.91,474.06c0,0-102.25,11.51-229.6,11.33c-4.83-0.01-9.64-0.51-14.36-1.53l0,0
	c-3.27-0.71-6.58-1.17-9.91-1.39L53.75,470.57c-4.27-0.28-8.49-1-12.6-2.21c-6.59-1.94-15.91-5.49-21.53-11.15"/>
<path class="st0" d="M222.48,442.98v-32.81c0-1.93-1.52-3.52-3.45-3.61l-136.35-6.11c-2.06-0.09-3.77,1.55-3.77,3.61v31.8
	c0,1.92,1.5,3.51,3.42,3.61l136.35,7.12C220.74,446.7,222.48,445.05,222.48,442.98z"/>
<path class="st0" d="M300.49,485.04"/>
<path class="st0" d="M222.21,444.35"/>
<path class="st0" d="M221.67,445.26c0,0,4.31,0.13,10.22,0.73c14.58,1.47,28.49,6.82,40.33,15.45c7.66,5.58,17.64,13.5,28.27,23.61"
	/>
<path class="st0" d="M78.91,436.39c-3.3-0.22-6.64-0.11-9.92,0.28c-6.75,0.81-11.78,3.53-16.34,8.49
	c-4.37,4.75-8.33,9.91-11.75,15.38c-1.33,2.13-2.57,4.31-3.72,6.54"/>
<path class="st0" d="M19.2,407.93c0,0,9.38,11.39,20.64,19.6c0.91,0.66,1.42,1.73,1.32,2.85c-0.33,3.77-1.23,12.66-3.02,19.25
	c-0.51,1.88-2.55,2.86-4.34,2.1c-3.51-1.5-8.6-4.36-12.07-13.96"/>
<line class="st1" x1="273.47" y1="462.36" x2="50.8" y2="447.23"/>
<line class="st1" x1="288.81" y1="474.54" x2="43.07" y2="457.22"/>
<line class="st1" x1="58.04" y1="440.51" x2="58.04" y2="470.86"/>
<polyline class="st1" points="78.9,472.23 78.9,436.4 78.9,435.86 "/>
<line class="st1" x1="99.77" y1="440.38" x2="99.77" y2="473.6"/>
<line class="st1" x1="120.63" y1="441.47" x2="120.63" y2="474.96"/>
<line class="st1" x1="141.5" y1="442.56" x2="141.5" y2="476.33"/>
<line class="st1" x1="162.36" y1="443.65" x2="162.36" y2="477.7"/>
<line class="st1" x1="183.23" y1="444.74" x2="183.23" y2="479.06"/>
<line class="st1" x1="204.09" y1="445.83" x2="204.09" y2="480.43"/>
<line class="st1" x1="224.95" y1="445.42" x2="224.95" y2="481.8"/>
<line class="st1" x1="245.82" y1="448.62" x2="245.82" y2="484.03"/>
<line class="st1" x1="266.68" y1="457.74" x2="266.68" y2="485.37"/>
<path class="st0" d="M302.84,443.65c0,0,107.15-19.16,144.72-22.48c1.9-0.17,3.32,1.7,2.65,3.48
	c-3.81,10.23-15.47,37.88-31.66,41.87c-24.32,5.4-71.32,5.19-88.24,4.91c-4.66-0.08-9.22-1.57-12.92-4.4
	c-7.54-5.77-13.42-13.46-16.61-18.14C299.42,446.91,300.5,444.19,302.84,443.65L302.84,443.65"/>
<path class="st0" d="M268.27,394.32c-9.44,2.35-19.16,3.43-28.89,3.33l-56.15-0.58c-63.7-2.58-105-7.23-115.23-8.47
	c-1.82-0.22-3.62-0.59-5.35-1.21c-9.69-3.44-16.08-9.91-19.54-14.34c-2.11-2.71-2.7-6.33-1.47-9.54
	c5.77-15.14,13.67-22.62,19.59-26.28c3.65-2.26,7.87-3.43,12.16-3.55c38.6-1.03,99.31,1.56,99.31,1.56
	c40.73,2.4,66.65,5.55,72.28,6.28c0.76,0.1,1.51,0.22,2.26,0.41c17.76,4.57,44.07,29.11,50.38,35.18c0.9,0.86,1.4,2.05,1.4,3.29l0,0
	c0,1.77-1.01,3.38-2.61,4.13C291.99,386.64,282.11,390.88,268.27,394.32z"/>
<path class="st1" d="M46.22,363.19c-1.16,1.86-1.23,4.24-0.11,6.12c2.98,5,9.92,10.94,9.92,10.94c5.14,4.5,36.48,7.88,36.48,7.88
	c38.83,3.75,129.52,5.69,147.59,6.05c2.56,0.05,5.13,0.02,7.69-0.19c18.36-1.49,36.25-8.67,42.32-11.31
	c1.32-0.58,2.18-1.88,2.18-3.33l0,0c0-1.06-0.46-2.07-1.27-2.76l-14.32-12.25c-18.96-15.43-30.21-18.16-30.21-18.16
	s-38.28-9.41-171.25-8.4c-4.55,0.03-8.98,1.62-12.42,4.59C58.71,345.89,53.08,352.14,46.22,363.19z"/>
<path class="st1" d="M48.99,373.21c0,0-1.8,3.5,44.81,7.36c0,0,145.6,9.29,189.64,4.81"/>
<path class="st1" d="M45.34,365.95c0,0,85.42,13.96,245.67,10.64"/>
<path class="st1" d="M49.84,357.62c0,0-0.97,3.56,114.44,8.33l118.02,3.19"/>
<path class="st1" d="M54.35,351.46c0,0,94.33,6.22,217.8,9.31"/>
<path class="st1" d="M61.67,343.39c0,0,105.26,5.55,197.64,8.73"/>
<path class="st0" d="M533.44,340.12c29.85-1.36,48.95,26.57,54.83,52.63c7.17,31.77,6.33,65.37-0.65,97.1
	c-3.62,16.45-11.21,33.84-26.04,43.06c-33.55,20.84-88.59,12.36-92.65-33.67"/>
<g>
	
		<ellipse transform="matrix(0.0218 -0.9998 0.9998 0.0218 94.2111 985.5807)" class="st0" cx="550.74" cy="444.65" rx="72" ry="34.39"/>
	
		<ellipse transform="matrix(0.0218 -0.9998 0.9998 0.0218 92.7705 982.618)" class="st1" cx="548.51" cy="443.9" rx="8.62" ry="3.75"/>
	
		<ellipse transform="matrix(0.0218 -0.9998 0.9998 0.0218 92.7705 982.618)" class="st0" cx="548.51" cy="443.9" rx="25.82" ry="11.23"/>
	<g>
		<polyline class="st1" points="572.96,388.08 570.3,390.78 564.55,396.61 555.36,419.88 551.46,417.12 551.1,411.25 549.52,385.21 
			549.52,385.2 549.41,383.43 552.18,374.26 552.21,372.67 		"/>
		<polyline class="st1" points="575,391.85 566.59,401.37 557.58,421.32 559.22,425.43 567.82,403.97 576.21,394.4 		"/>
		<polyline class="st1" points="584.78,441.85 567.16,439.34 561.71,438.56 560.41,429.32 565.04,418.83 570.11,407.34 
			575.38,401.48 577.96,398.61 		"/>
		<polyline class="st1" points="584.68,446.56 561.61,443.27 561.5,448.2 584.6,450.63 		"/>
		<polyline class="st1" points="547.43,373.28 547,376.08 544.24,384.81 547.37,418.2 548.67,417.06 546.8,384.87 548.69,376.87 
			549.46,372.86 		"/>
		<polyline class="st1" points="544.46,374.36 544.41,376.89 541.52,384.21 544.28,419.64 540.65,423.91 534.55,417.15 
			524.79,406.36 524.9,401.43 524.32,400.49 		"/>
		<polyline class="st1" points="519.96,414.67 520.01,414.71 519.91,419.11 535.81,436.71 535.59,446.99 518.19,458.61 
			516.92,460.62 		"/>
		<path class="st1" d="M525.45,435.2"/>
		<polyline class="st1" points="522.13,406.72 522.21,406.84 522.15,409.66 522.04,414.87 537.42,432.03 538.69,427.77 
			522.15,409.66 		"/>
		<polyline class="st1" points="518.29,471.1 520.24,467.82 536.08,456.75 536.19,451.61 519.2,463.95 517.65,466.99 		"/>
		<polyline class="st1" points="520.02,479.38 523.05,471.74 530.16,466.39 537.98,460.5 541.33,466.19 533.4,498.38 534.28,509.05 
			534.28,509.06 		"/>
		<polyline class="st1" points="539.95,513.77 538.95,499.37 545.28,469.5 543.19,469.45 537.13,499.54 537.68,512.19 		"/>
		<path class="st1" d="M564.69,508.63l0.1-4.47l-7.19-9.16l-5.37-26.48l-3.18,1.06L547,478c0,0,0,0,0,0.01l-5.27,21.85l0.39,3.43
			l0.97,8.44l-0.08,3.61"/>
		<polyline class="st1" points="567.15,506.14 567.26,501.32 560.55,492.01 554.66,466.97 556.65,464.12 562.52,489.96 
			568.74,499.42 568.61,505.66 		"/>
		<polyline class="st1" points="533.12,384.14 535.51,391.7 536.29,415.07 534.55,417.15 		"/>
		<path class="st1" d="M549.37,385.03l8.77,10.8c0,0-1.22,8.94-7.04,15.42"/>
		<path class="st1" d="M547,477.99c0,0,3.51,7.48,4.35,17.89c0,0-5.19,5.45-9.23,7.4"/>
		<polyline class="st1" points="517.98,424.94 523.45,431.72 526.25,435.21 526.01,446.46 522.31,449.53 516.5,454.37 		"/>
		<path class="st1" d="M523.45,431.73c0,0-3.23,8.91-1.13,17.81"/>
		<path class="st1" d="M530.16,466.39l1.89,1.69c0,0-1.45,20.21-5.41,29.7"/>
		<polyline class="st1" points="571.93,500.73 572.03,496.12 564.55,485.19 558.17,460.93 559.88,453.58 584.49,455.56 		"/>
		<path class="st1" d="M566.2,454.09c0,0,0,10.87-4.32,20.95"/>
		<path class="st1" d="M565.04,418.83c0,0,2.59,6.51,2.12,20.7"/>
		<path class="st1" d="M552.18,374.27c0,0,11.8,3.84,18.12,16.52"/>
		<path class="st1" d="M575.38,401.48c0,0,6.25,22.83,4.61,39.52"/>
		<path class="st1" d="M581.28,455.3l-3.2,9.28c0,0-5.3,20.28-9.16,26.98"/>
	</g>
</g>
<path class="st1" d="M847.4,378.89"/>
<polyline class="st1" points="842.56,371 846.11,376.22 847.93,378.9 847.74,387.58 845.32,389.95 841.52,393.7 "/>
<path class="st1" d="M846.1,376.22c0,0-2.13,6.88-0.78,13.74"/>
<path class="st1" d="M873.24,366.17c0,0,1.67,5.02,1.33,15.96"/>
<g>
	
		<ellipse transform="matrix(0.0218 -0.9998 0.9998 0.0218 459.0289 1241.3601)" class="st0" cx="863.86" cy="386.11" rx="55.53" ry="22.41"/>
	
		<ellipse transform="matrix(0.0218 -0.9998 0.9998 0.0218 458.1756 1239.3501)" class="st1" cx="862.4" cy="385.55" rx="6.65" ry="2.44"/>
	
		<ellipse transform="matrix(0.0218 -0.9998 0.9998 0.0218 458.1756 1239.3501)" class="st0" cx="862.4" cy="385.55" rx="19.91" ry="7.31"/>
	<polyline class="st1" points="878.48,342.43 876.74,344.52 872.98,349.03 866.93,367 864.4,364.88 864.18,360.36 863.21,340.28 
		863.21,340.27 863.15,338.9 864.97,331.83 865,330.6 	"/>
	<polyline class="st2" points="879.8,345.33 874.29,352.7 868.37,368.11 869.43,371.27 875.09,354.7 880.58,347.3 	"/>
	<polyline class="st1" points="886.04,383.87 874.57,381.97 871.02,381.39 870.19,374.26 873.24,366.17 876.57,357.29 
		880.02,352.75 881.71,350.54 	"/>
	<polyline class="st2" points="885.97,387.5 870.94,385.03 870.86,388.83 885.9,390.64 	"/>
	<polyline class="st2" points="861.88,331.08 861.59,333.24 859.77,339.99 861.73,365.73 862.58,364.84 861.45,340.02 
		862.69,333.85 863.21,330.75 	"/>
	<polyline class="st1" points="859.95,331.92 859.91,333.87 858,339.53 859.71,366.85 857.34,370.14 853.38,364.95 847.05,356.65 
		847.13,352.85 846.76,352.13 	"/>
	<polyline class="st1" points="843.88,363.08 843.91,363.11 843.84,366.5 854.15,380.03 853.98,387.96 842.61,396.97 841.78,398.52 
			"/>
	<polyline class="st2" points="845.32,356.94 845.37,357.03 845.32,359.2 845.23,363.22 855.21,376.41 856.05,373.13 845.32,359.2 	
		"/>
	<polyline class="st2" points="842.64,406.6 843.92,404.06 854.27,395.49 854.36,391.52 843.25,401.08 842.24,403.43 	"/>
	<polyline class="st1" points="843.75,412.98 845.74,407.08 850.39,402.93 855.5,398.37 857.67,402.75 852.42,427.6 852.96,435.82 
		852.96,435.83 	"/>
	<polyline class="st2" points="856.64,439.45 856.03,428.34 860.23,405.29 858.87,405.26 854.84,428.48 855.17,438.24 	"/>
	<path class="st1" d="M872.77,435.42l0.08-3.45l-4.66-7.04l-3.43-20.41l-2.08,0.83l-1.35,6.5c0,0,0,0,0,0.01l-3.49,16.87l0.24,2.64
		l0.61,6.51l-0.06,2.78"/>
	<polyline class="st2" points="874.39,433.5 874.47,429.78 870.12,422.62 866.35,403.32 867.66,401.11 871.41,421.03 875.44,428.31 
		875.34,433.12 	"/>
	<polyline class="st1" points="852.53,339.5 854.07,345.32 854.51,363.34 853.38,364.95 	"/>
	<path class="st1" d="M863.12,340.14l5.68,8.31c0,0-0.82,6.9-4.62,11.91"/>
	<path class="st1" d="M861.33,411.84c0,0,2.26,5.76,2.79,13.79c0,0-3.4,4.22-6.04,5.73"/>
	<path class="st1" d="M850.39,402.93l1.23,1.3c0,0-1,15.59-3.6,22.92"/>
	<polyline class="st1" points="877.51,429.31 877.59,425.75 872.75,417.34 868.65,398.66 869.79,392.98 885.81,394.44 	"/>
	<path class="st1" d="M873.9,393.35c0,0-0.03,8.38-2.87,16.17"/>
	<path class="st1" d="M864.98,331.83c0,0,7.68,2.93,11.76,12.69"/>
</g>
<path class="st1" d="M880.02,352.76c0,0,4.02,17.59,2.9,30.46"/>
<path class="st1" d="M883.72,394.25l-2.11,7.17c0,0-3.51,15.65-6.04,20.83"/>
<path class="st0" d="M840.26,467.14"/>
<path class="st0" d="M792.69,424.54c0,0,4.78,33.24,29.53,39.26c1.74,0.42,3.52,0.64,5.31,0.76c5.55,0.38,19.58,0.86,33.09-2.61
	c6.51-1.67,12.16-5.73,15.77-11.4c6.48-10.18,14.91-30.91,15.31-70.09c0-37.74-14.31-69.85-34.29-81.74"/>
<path class="st2" d="M58.04,480.43"/>
<path class="st0" d="M58.04,480.43c0,0,5.22,30.64,56.65,31.29c46.61,1.29,57.5-23.61,57.5-23.61"/>
<path class="st0" d="M217.02,187.72c0,0-14.3-1.37-26.75,5.44c-4.22,2.31-6.79,6.78-6.79,11.58v9.14"/>
<path class="st1" d="M651.47,86.86l25.69-73.37c0.18-0.52-0.09-1.09-0.61-1.27l0,0c-0.52-0.18-1.09,0.09-1.27,0.61L649.59,86.2"/>
</svg>
